<?xml version="1.0" encoding="UTF-8"?>
<!DOCTYPE svg  PUBLIC '-//W3C//DTD SVG 20010904//EN'  'http://www.w3.org/TR/2001/REC-SVG-20010904/DTD/svg10.dtd'>
<svg width="706" height="1053" viewBox="20 -1 706 1053" xmlns="http://www.w3.org/2000/svg">
 <circle transform="matrix(2.0836 0 0 2.086 -334.35 -300.99)" cx="340" cy="310" r="108" fill="none" stroke="#fff" stroke-width="37.762"/>
 <g transform="matrix(1.8 0 0 1.8 -220.25 -213.47)">
  <g transform="translate(-.508 14.102)" fill="none" stroke="#000">
   <circle transform="matrix(1.173 0 0 1.1668 -67.959 -64.547)" cx="340" cy="310" r="88" stroke-width="2.1205"/>
   <circle transform="matrix(1.1515 0 0 1.1571 -60.619 -61.953)" cx="340" cy="310" r="108" stroke-width="19.656"/>
   <circle transform="matrix(1.6682 0 0 1.676 -237.14 -223.63)" cx="340" cy="310" r="88" stroke-width="1.4951"/>
  </g>
  <g transform="translate(11.139 -.3815)">
   <g transform="translate(.69466 2.241)">
    <g transform="translate(-2.0943 8.0497)">
     <g transform="translate(-1.448 1.1731)">
      <g transform="translate(-8.5391 3.9434)">
       <path transform="translate(.026379 .1421)" d="m283.64 111.57l93.145 1.063-6.288 116.99c10.093 5.813 22.803 18.602 27.373 28.485l111.04 0.049-0.616 86.943-115.1-4.521c-4.728 7.194-7.194 9.455-18.295 18.088l12.333 320.44-124.97 0.821 26.018-318.66c-8.441-5.56-14.994-11.847-19.657-18.715l-119 0.291 0.823-89.205 112.56 4.522c3.701-6.752 12.754-18.445 23.141-25.487l-2.516-121.1z" fill="#fff" fill-rule="evenodd" stroke="#000" stroke-width="2.0833"/>
       <path d="m292.93 121.92l73.512 0.241-3.87 103.35c-21.31-9.335-42.038-8.786-67.998 2.807l-1.644-106.4z" fill-rule="evenodd" stroke="#000" stroke-opacity=".42105" stroke-width="1pt"/>
       <path d="m501.13 265.79l-0.582 71.506-103.48-3.489c12.208-24.61 12.789-41.082 4.65-67.436l99.412-0.581z" fill-rule="evenodd" stroke="#000" stroke-width="1pt"/>
       <path d="m159 263.75l101.74 4.07c-11.821 23.254-5.911 48.543 3.197 66.565l-105.52 0.291 0.582-70.926z" fill-rule="evenodd" stroke="#000" stroke-width="1pt"/>
       <path d="m272.66 670.41l105.23-1.163-12.209-306.03c-19.384 12.548-49.867 11.735-68.84 2.289l-24.177 304.91z" fill-rule="evenodd" stroke="#000" stroke-width="1pt"/>
       <ellipse transform="matrix(1.1741 0 0 1.2796 -64.768 -94.66)" cx="336.9" cy="305.32" rx="58.426" ry="54.066" fill="none" stroke="#000" stroke-width="2.0268"/>
       <ellipse transform="matrix(1.191 0 0 1.2814 -72.878 -88.898)" cx="338.93" cy="300.38" rx="51.741" ry="48.543" fill-rule="evenodd"/>
      </g>
      <g transform="translate(-9.2226 3.5355)" fill="#fff" fill-rule="evenodd" stroke="#000" stroke-width="1pt">
       <path d="m347.98 256.31l-7.195 4.727c-4.693-4.406-13.062-10.617-19.339-13.106-6.278-2.49-10.258-1.257-15.001 3.411-5.128-0.249-7.194 0.589-11.605 1.248 14.189-17.853 33.887-14.231 53.14 3.72z"/>
       <path d="m333.53 255.54c-8.633 6.851-18.028 16.11-26.455 23.372-2.672-1.37-5.138-4.18-6.372-9.044 8.153-5.755 15.981-13.797 24.339-20.168 3.168 1.559 6.191 3.554 8.488 5.84z"/>
       <path d="m365.67 262.57c0.311-3.921-0.898-6.645-3.134-8.837-15.895-1.439-33.959 12.431-26.066 35.051 1.551 3.856 23.538 0.762 28.328-3.774-1.053-1.885-2.02-3.189-4.437-5.972-4.925 2.585-10.395 4.129-15.876 2.759-1.233-1.782-0.602-22.789 21.185-19.227z"/>
       <path d="m319.41 268.43l5.345-4.728c4.864 7.331 6.955 23.862 5.138 25.486-6.514 5.615-39.207 2.056-39.549-22.403 2.604-2.878 7.142-6.638 10.774-6.021-5.07 10.345 5.686 20.34 11.715 21.231 10.688 1.165 9.866-0.548 6.577-13.565z"/>
       <path d="m331.87 244.2c3.22 1.781 6.465 4.335 9.394 5.789 12.059-3.973 29.742 0.336 23.096 21.232 1.594 2.218 3.966 4.882 6.021 6.869 2.535-5.55 6.715-15.271 1.234-24.726-13.634-17.197-35.239-12.46-39.745-9.164z"/>
       <path d="m348.23 267.53c1.744-2.132 4.421-4.384 8.951-4.832 6.733 8.575 15.186 16.519 20.176 24.368-1.49 3.644-2.954 5.522-5.086 7.848-6.928-9.544-12.753-19.003-24.041-27.384z"/>
       <path d="m318.15 254.89c-2.325 2.229-3.778 3.439-6.103 5.523-7.555-2.968-27.604 0.592-25.229 21.084-2.81 3.682-3.526 5.149-5.899 9.993-4.65-7.17-7.676-17.254 1.478-30.06 7.708-10.614 24.417-12.306 35.753-6.54z"/>
       <path d="m374.54 258.96c0.146 3.973 0.171 4.046-0.701 9.182 11.675 13.662 1.15 23.094-6.25 33.147 2.955 2.471 4.397 4.797 6.044 7.413 12.983-12.16 22.369-32.495 0.907-49.742z"/>
       <path d="m292.28 276.65c2.329 4.179 4.453 5.892 7.399 8.427-16.578 8.631-16.393 29.419-10.832 33.919-0.532 6.362 1.282 7.633 1.898 13.319-4.886-1.154-11.969-7.635-12.998-18.937-1.147-11.04 1.549-25.458 14.533-36.728z"/>
       <path d="m375.96 322.4c-2.337 3.631-3.999 5.241-8.367 7.278 0.754-6.612-1.514-16.757-6.956-21.8-5.442-5.044-15.171-7.03-19.232-3.882-2.262 1.711 1.85 14.113 4.933 19.937l-5.755 5.138c-5.961-8.359-8.454-30.681-6.783-33.297 0.867-1.304 12.676-3.425 23.381-0.013 11.035 3.451 20.698 14.238 18.779 26.639z"/>
       <path d="m384.01 295.27l-5.368 8.343c2.128 8.756-1.002 18.259-5.955 22.827-5.323 4.769-11.732 6.529-20.39 4.269-1.482 1.515-2.689 2.982-4.436 4.667 11.252 15.193 53.552-10.371 36.149-40.106z"/>
       <path d="m361.13 309.13c2.261 1.37 4.728 5.207 4.933 8.838-8.222 7.057-16.238 15.552-23.432 22.609-3.494-0.753-7.194-1.918-10.482-4.727 11.099-7.468 20.348-17.813 28.981-26.72z"/>
       <path d="m292.69 290.67c7.194 9.866 15.767 20.362 24.811 28.584-2.2 3.872-3.366 5.012-6.517 6.322-8.633-8.427-14.594-13.36-23.844-26.514 1.54-3.742 2.536-5.704 5.55-8.392z"/>
       <path d="m323.79 326.99c5.653 8.975 14.614 13.914 23.885 14.76 4.635 0.423 14.56-0.952 16.545-2.149 1.121-0.594 8.427-4.558 12.178-7.316 0.616 1.789-3.812 8.479-7.255 11.296-3.442 2.817-8.365 4.725-11.003 5.136-15.851 2.938-30.444-5.103-41.749-15.585 3.664-1.799 5.755-3.462 7.399-6.142z"/>
       <path d="m292.9 306.87c2.269 2.938 4.539 5.198 6.577 7.399-3.152 28.159 12.039 34.038 26.515 26.816 3.938 2.184 6.653 3.632 9.986 5.37-9.809 6.071-19.367 6.901-30.757 3.143-7.263-2.354-23.557-22.311-12.321-42.728z"/>
       <path d="m299.27 299.06c7.674-5.344 22.326-4.683 28.364-3.7 0.78 0.108 2.788 14.062-0.144 23.843-2.932 9.78-13.715 19.526-25.935 15.62-1.457-3.184-2.186-6.079-2.19-9.845 18.019 9.196 25.425-18.08 17.786-21.397-1.884-0.729-8.171-1.017-11.91 2.707-2.535-2.946-3.436-4.282-5.971-7.228z"/>
      </g>
     </g>
     <g transform="translate(-.78125 1.5625)" fill="#fff" fill-rule="evenodd" stroke="#000" stroke-width="1pt">
      <path d="m204.6 302.7l-5.355 5.647c6.056 4.942 12.413 9.915 18.323 14.566 3.924-1.017 5.523-1.889 7.703-3.924l-20.671-16.289z"/>
      <path d="m206.39 314.32l6.24 4.952c-13.129 11.918-24.078 19.475-39.242 11.191 4.263-2.713 5.329-3.537 8.575-5.378 9.108 2.907 12.703-1.319 24.427-10.765z"/>
      <path d="m179.47 302.01c-2.033 2.36-3.203 4.138-4.996 6.484l16.79 16.735c2.81-1.163 5.485-2.751 7.568-5.076l-19.362-18.143z"/>
      <path d="m230.36 302.56c-1.986 1.502-4.263 3.295-5.377 5.378 6.928 5.474 14.979 15.627 14.534 19.911-0.304 1.527-6.007-1.502-9.156-3.343-1.841 1.26-3.537 2.665-5.378 4.215 6.492 6.201 24.149 9.565 26.451 7.703 1.709-1.49-10.319-24.514-21.074-33.864z"/>
      <path d="m233.12 279.89c-2.811 0.824-3.587 1.647-6.687 3.634 7.364 8.478 8.914 15.792 9.302 24.27 1.211 1.939 2.713 3.295 4.069 4.943 7.025-9.641 3.005-23.642-6.684-32.847z"/>
      <path d="m237.92 284.54c1.247 2.336 2.471 4.505 3.489 7.266 4.118-5.571 8.248-18.289 6.54-18.748-12.393-3.294-26.483-1.51-37.044 10.698l6.523 5.144c8.719-7.169 22.388-12.532 22.818-10.61 0.425 2.044-0.727 3.15-2.326 6.25z"/>
      <path d="m231.67 314.62c2.325 2.084 2.761 2.859 3.633 4.797-7.218 5.62-13.71 13.419-23.981 14.824-4.408-0.242-8.526-0.339-12.208-3.633 3.052-1.986 4.069-3.101 6.395-4.65 9.302-1e-3 19.475-5.379 26.161-11.338z"/>
      <path d="m223.1 274.51c-2.713 1.308-5.135 2.471-7.267 4.361-7.655-3.15-19.814 3.294-25.435 11.19-1.695-1.502-4.408-3.293-6.104-5.231 6.104-6.59 14.098-18.847 38.806-10.32z"/>
      <path d="m231.09 290.79c1.356 2.665 2.422 4.893 3.052 7.557-4.942 4.796-10.9 10.174-15.696 15.116-2.325-1.986-4.069-3.391-6.685-5.668 7.509-6.588 13.128-11.288 19.329-17.005z"/>
      <path d="m205.32 279.24c-3.013 0.951-4.908 2.018-7.373 4.131 7.8 7.073 12.839 11.385 20.348 18.167 3.052-2.083 4.214-3.585 6.975-5.668-6.104-5.135-13.846-11.495-19.95-16.63z"/>
      <path d="m205.36 290.06l5.938 5.513-18.066 18.959-5.679-5.522c4.99-6.347 11.654-13.185 17.807-18.95z"/>
      <path d="m198.1 297.21l-4.773 5.086c-6.637-5.619-13.642-11.718-19.843-17.774 2.033-2.027 2.913-2.802 5.411-4.124l19.205 16.812z"/>
      <path d="m197.95 273.06c-3.439 1.647-5.426 2.858-8.139 5.814-11.578-1.938-16.472 5.571-21.801 11.045-1.55-1.938-3.246-4.021-4.796-6.976 8.284-8.527 24.853-15.309 34.736-9.883z"/>
      <path d="m179.2 290.21l5.522 5.088c-5.135 6.298-10.671 13.177-15.661 19.62-2.18-1.502-3.523-4.021-3.959-7.703l14.098-17.005z"/>
      <path d="m172.52 275.67c-2.45 1.148-4.506 2.616-6.54 4.215-1.26-1.115-4.956-1.993-4.651-0.291 0.382 2.312 7.461 12.257 12.063 17.441l-4.651 5.232c-7.897-7.558-18.796-26.877-16.423-30.812 2.227-3.548 14.776 0.775 20.202 4.215z"/>
      <path d="m159.15 290.5c2.035 3.149 3.343 4.699 5.233 6.831-1.114 11.627 2.422 17.731 9.883 22.964-1.987 1.89-4.264 3.487-6.832 4.214-7.074-7.074-19.523-17.925-8.284-34.009z"/>
      <path d="m158.33 315.24c1.453 1.599 3.585 3.821 4.893 5.564-0.921 1.889-3.661 5.355-2.186 5.738 5.112 1.364 13.952-6.298 20.492-10.755 1.987 2.083 3.827 3.585 5.813 5.523-10.706 6.782-26.17 17.701-35.317 15.551-3.065-0.732 1.315-14.208 6.305-21.621z"/>
     </g>
    </g>
    <g transform="translate(-1.5468 8.176) matrix(-1 0 0 1 640.03 2.0046)" fill="#fff" fill-rule="evenodd" stroke="#000" stroke-width="1pt">
     <path d="m196.54 275.4c-3.283 2.428-4.645 3.796-7.514 6.127-11.89-3.656-18.035 5.415-24.145 12.139-1.55-1.938-2.934-3.083-4.484-6.038 7.659-9.621 23.448-22.028 36.143-12.228z"/>
     <path d="m177.02 294.11l5.992 5.245c-5.135 6.298-11.297 10.208-16.287 16.651-2.648-2.752-3.835-4.646-4.428-6.922l14.723-14.974z"/>
     <path d="m202.88 305.35l-5.511 5.646c6.056 4.942 13.507 10.072 19.416 14.723 2.831-1.525 3.648-2.671 5.986-4.862l-19.891-15.507z"/>
     <path d="m203.74 316.04l6.553 4.953c-13.129 11.918-24.391 20.881-40.023 11.972 4.263-2.713 2.828-1.817 7.637-4.753 8.17 3.688 14.578-2.1 25.833-12.172z"/>
     <path d="m176.97 305.92c-2.658 2.204-3.984 3.514-5.932 5.859l18.978 15.173c2.341-1.32 4.077-2.751 6.473-5.076l-19.519-15.956z"/>
     <path d="m228.49 304.28c-1.986 1.502-4.107 3.139-5.221 5.221 6.928 5.474 14.354 13.909 13.909 18.193-0.304 1.527-4.561-0.603-7.71-2.445-2.427 2.197-3.459 3.056-5.886 5.074 6.804 6.006 23.836 6.245 26.138 4.383 1.709-1.49-9.694-21.232-21.23-30.426z"/>
     <path d="m229.53 282.78c-3.006 1.488-4.33 2.349-6.687 4.336 7.52 8.361 9.539 11.535 9.46 19.894 1.365 1.861 5.056 5.641 6.411 7.288 3.431-10.733 0.975-20.907-9.184-31.518z"/>
     <path d="m233.54 287.35c1.559 2.179 2.471 3.255 3.957 5.391 3.493-5.728 9.152-19.731 7.321-20.311-11.451-3.522-23.591 3.567-34.152 15.776 1.654 1.858 3.698 3.716 5.976 5.065 6.219-8.262 17.7-13.625 18.13-11.703 0.425 2.044 0.368 2.682-1.232 5.782z"/>
     <path d="m228.54 314.62c2.638 2.24 4.011 4.109 5.508 6.516-7.219 5.62-11.97 12.84-22.262 14.042-5.012 0.586-10.557 0.13-14.864-2.852 3.052-1.986 6.061-4.741 8.387-6.29 10.356 4.57 17.795-4.832 23.231-11.416z"/>
     <path d="m224.19 275.6c-2.4 1.62-4.509 3.565-6.954 5.143-7.655-3.15-14.501-2.644-28.56 13.222-1.695-1.502-4.096-2.982-5.791-4.919 7.821-8.934 20.503-25.411 41.305-13.446z"/>
     <path d="m228.28 293.76c1.982 2.508 2.579 3.955 3.209 6.62-4.942 5.108-10.276 10.329-15.228 15.115-2.325-1.986-3.755-2.922-6.371-5.199 7.352-6.744 12.033-10.819 18.39-16.536z"/>
     <path d="m202.47 281.67c-3.208 1.888-4.673 3.23-6.395 5.147 7.799 7.073 12.057 10.917 20.191 17.23 3.052-2.083 3.277-3.272 6.038-5.355-6.105-5.135-13.73-11.886-19.834-17.022z"/>
     <path d="m203.64 293.65l5.782 5.045-18.378 18.178-6.305-4.897c4.991-6.348 13.217-12.248 18.901-18.326z"/>
     <path d="m195.91 300.18l-5.241 5.399c-6.638-5.62-14.268-11.718-20.468-17.775 2.033-2.027 3.07-3.114 5.567-4.436l20.142 16.812z"/>
     <path d="m170.33 277.55c-2.294 1.929-4.037 3.398-6.071 4.997-1.261-1.115-5.518-2.134-5.902-0.448-1.024 4.656 7.461 13.195 12.063 18.379l-4.963 5.075c-16.179-14.12-15.664-25.979-13.611-33.311 0.811-3.607 12.901 1.087 18.484 5.308z"/>
     <path d="m155.71 294.87c2.348 3.149 3.657 4.856 6.014 7.3-0.644 10.064 3.36 12.262 11.134 20.933-2.612 2.515-3.795 3.33-6.676 5.152-7.075-7.075-15.46-21.363-10.472-33.385z"/>
     <path d="m157.24 315.86c1.453 2.693 2.179 4.29 3.956 6.814-0.921 1.889-4.599 8.324-3.124 8.707 5.112 1.364 13.953-7.079 20.804-13.255 2.3 1.613 3.672 2.96 6.127 4.897-10.706 6.783-23.358 17.546-32.505 15.395-3.065-0.731-1.185-14.52 4.742-22.558z"/>
    </g>
   </g>
   <g transform="translate(.78127 2.0312) matrix(0 -1 -1 0 621.71 382.31)" fill="#fff" fill-rule="evenodd" stroke="#000" stroke-width="1pt">
    <path d="m234.04 284c1.403 1.71 2.705 3.453 4.505 5.59 3.962-5.26 7.784-17.171 5.901-18.037-13.971-5.611-21.098 2.198-33.442 15.694l5.002 5.441c7.781-8.107 16.571-17.095 18.49-14.394 0.989 1.311 1.142 2.605-0.456 5.706z"/>
    <path d="m221.89 275.68c-2.557 1.933-3.223 3.29-5.354 5.18-7.473-2.255-18.467 4.777-24.53 11.282-1.694-1.502-5.2-4.048-6.896-5.986 7.56-6.24 22.171-17.548 36.78-10.476z"/>
    <path d="m204.41 292.7l5.795 6.319-18.365 17.816-6.277-5.393c4.99-6.347 12.694-12.977 18.847-18.742z"/>
    <path d="m197.56 277.06c-3.999 2.466-2.526 1.596-6.149 3.89-11.358-3.927-19.841 4.595-25.17 10.069-1.863-1.938-3.922-3.865-5.472-6.82 8.284-8.527 24.258-18.753 36.791-7.139z"/>
    <path d="m205.38 303.79l-6.422 6.191c6.056 4.942 12.478 12.034 18.388 16.685 3.924-1.238 5.081-2.552 6.819-4.808l-18.785-18.068z"/>
    <path d="m206.04 316.68l6.162 5.979c-13.35 12.581-24.975 17.863-40.139 9.579 4.419-2.244 5.809-3.238 8.899-5.235 9.108 2.907 13.667-0.252 25.078-10.323z"/>
    <path d="m178.15 304.89c-2.033 2.36-3.866 3.696-5.659 6.042l18.663 16.333c2.81-1.319 4.808-2.101 6.892-4.426l-19.896-17.949z"/>
    <path d="m227.84 303.2c-2 2.192-3.69 4.867-5.897 7.653 6.928 5.474 14.043 15.147 13.598 19.431-0.303 1.527-3.134-0.176-6.283-2.017-1.841 1.26-3.758 3.107-5.599 4.657 5.829 6.863 18.625 7.355 20.927 5.493 1.709-1.49-0.439-26.972-16.746-35.217z"/>
    <path d="m229.07 280.18c-2.03 1.449-3.107 2.558-5.27 4.545 7.364 8.478 12.218 13.479 11.059 23.504 1.211 1.939 3.376 4.621 4.732 6.269 7.025-9.641 0.715-26.66-10.521-34.318z"/>
    <path d="m228.32 317.53c2.325 2.084 3.58 3.743 4.647 6.15-5.671 7.166-11.371 11.3-21.642 12.705-4.408 0.227-9.631 0.168-13.313-3.126 4.38-2.142 6.578-4.036 8.826-5.976 9.744 1.988 14.133-0.922 21.482-9.753z"/>
    <path d="m227.77 289.59c2.606 2.821 3.942 4.02 5.041 7.309-4.942 4.796-10.315 13.542-15.111 18.484-2.325-2.142-3.247-2.998-5.864-5.588 6.728-8.306 10.514-13.551 15.934-20.205z"/>
    <path d="m205.54 282.46c-2.934 1.265-4.192 2.097-7.203 4.132 7.8 7.073 10.137 10.787 17.646 17.569 1.958-2.474 3.279-3.911 4.867-6.15-5.478-5.76-9.05-9.79-15.31-15.551z"/>
    <path d="m198.1 298.31l-5.878 5.528c-6.637-5.619-13.2-12.602-19.401-18.658 2.346-2.105 3.576-2.802 6.23-3.89l19.049 17.02z"/>
    <path d="m179.14 291.88l5.77 5.699c-5.603 6.142-12.87 12.345-17.86 18.787-2.18-1.814-3.588-4.435-4.023-7.961l16.113-16.525z"/>
    <path d="m172.01 275.56c-2.529 1.383-4.118 2.447-6.23 3.968-1.26-1.115-8.21-0.97-7.928 0.736 0.226 2.312 9.762 13.297 14.364 18.481l-5.47 5.518c-7.897-7.558-23.188-29.664-19.958-30.812 3.3-1.017 18.39-2.268 25.222 2.109z"/>
    <path d="m155.83 291.82c2.191 2.68 4.448 5.492 6.338 7.936-0.489 11.627 2.864 16.717 10.325 21.95-2.456 1.891-4.431 2.744-7.937 4.565-8.179-6.19-17.351-17.548-8.726-34.451z"/>
    <path d="m154.73 315.69c1.922 3.006 3.806 5.395 5.583 7.606-1.233 1.577-3.013 4.655-1.317 4.817 5.288-0.184 13.746-6.352 20.286-10.809 2.3 1.771 3.671 2.831 5.813 5.237-12.059 13.427-30.395 15.674-39.698 13.212-3.059-0.758 3.875-12.65 9.333-20.063z"/>
   </g>
  </g>
  <g transform="translate(11.25 .183)" fill="#fff" fill-rule="evenodd" stroke="#000" stroke-width="1pt">
   <path d="m339.81 547.02c-2.292 2.292-4.382 4.915-6.674 7.363 14.272 12.188 22.918 27.969 17.501 42.813 1.933 2.636 3.581 5.939 5.736 10.011 6.042-24.064 3.948-42.841-16.563-60.187z"/>
   <path d="m310.94 490l6.564 7.813-25.471 33.282c-1.992-3.568-3.255-6.967-4.66-11.498l23.567-29.597z"/>
   <path d="m307.51 511.26c-1.77 2.396-4.166 5.26-5.937 7.656 7.657 8.854 17.032 19.115 24.688 27.969 2.338-2.623 4.566-5.071 7.014-7.362-8.334-8.959-17.431-19.305-25.765-28.263z"/>
   <path d="m287.66 383.75c1.483-1.47 15.694 4.298 19.623 8.854-2.838 1.439-5.287 3.236-7.188 5.301-1.719-1.459-5.591-4.469-6.03-3.374-2.673 7.632 6.199 20.262 11.095 27.502-2.279 2.715-3.328 3.958-6.453 7.611-14.115-16.511-14.134-42.833-11.047-45.894z"/>
   <path d="m295.08 404.2c1.836 3.901 3 6.01 4.614 8.614 4.765-7.617 11.928-17.292 24.688-13.751 2.188-1.979 5.156-4.271 7.344-6.25-14.688-8.229-29.63 0.37-36.646 11.387z"/>
   <path d="m319.38 405.47c5.313-8.334 25.692-23.749 32.97-22.813 3.453 0.518 0.306 20.957-2.923 28.925-1.446-2.108-4.217-6.211-5.663-8.098 1.302-2.396 2.765-8.692 1.242-8.171-5.736 1.908-15.341 10.912-19.688 17.657-2.2-2.447-3.912-4.252-5.938-7.5z"/>
   <path d="m312.98 399.69c-2.761 0.886-5.365 2.709-7.032 4.845 5.469 7.969 13.438 17.812 19.063 23.907 2.761-3.385 3.646-5.21 6.251-8.126-5.781-7.031-11.094-12.969-18.282-20.626z"/>
   <path d="m312.51 413.6c1.719 1.875 3.907 4.844 5.626 7.031-7.084 8.803-14.884 20.032-21.968 28.834-1.836-2.598-3.736-8.202-4.128-11.333 6.511-7.657 13.959-16.876 20.47-24.532z"/>
   <path d="m289.16 413.14c1.66 4.121 3.137 7.232 5.22 10.774-8.281 14.323 4.045 30.476 8.264 37.455-1.485 2.721-3.809 5.865-5.736 8.254-6.735-7.627-20.405-38.305-7.748-56.483z"/>
   <path d="m311.26 429.69c-1.979 2.552-3.848 5.325-5.827 7.877 6.771 9.584 13.992 20.601 20.763 30.184 1.771-2.552 4.231-5.664 6.002-8.216-6.563-9.584-14.376-20.261-20.938-29.845z"/>
   <path d="m337.55 411.82c-6.719 8.907-11.133 14.745-19.414 27.245 1.979 3.594 4.271 5.782 6.25 8.594 6.667-9.375 12.884-18.034 18.457-26.316-1.023-3.241-2.552-6.151-5.293-9.523z"/>
   <path d="m339.27 398.78c-3.601 2.389-4.847 3.477-7.269 6.057 9.687 8.594 15.069 21.12 10.926 34.634 1.667 2.395 4.621 7.973 6.178 10.479 7.917-15.885 6.467-36.222-9.835-51.17z"/>
   <path d="m336.73 430.63c-1.719 2.343-3.907 5.468-5.626 7.812 10.052 14.376 19.323 30.157 15.626 42.658 2.395 4.375 4.323 8.437 5.937 11.876 8.646-15.47 1.667-38.596-15.937-62.346z"/>
   <path d="m339.07 450.72c2.604 4.492 3.452 5.886 4.714 9.779-6.041 9.844-13.36 19.973-20.026 28.723-2.189-3.021-4.688-5.728-6.876-8.749 7.188-9.219 15-20.534 22.188-29.753z"/>
   <path d="m312.4 448.25c2.188 2.975 4.082 5.969 6.049 8.944-6.823 10.417-15.834 22.709-23.594 32.345-1.823-3.178-2.709-5.886-4.063-11.095 7.24-9.167 14.479-20.696 21.608-30.194z"/>
   <path d="m286.1 448.11c1.544 4.14 3.262 9.244 5.312 12.832-5.677 15.521 5.364 32.449 9.844 40.939-1.719 1.978-4.219 5.208-6.095 7.187-10.572-11.979-20.051-38.509-9.061-60.958z"/>
   <path d="m309.23 470.94c-2.395 2.871-3.854 5.099-6.185 8.236 7.396 9.584 15.977 20.463 23.373 30.047 1.928-2.136 4.167-4.74 6.095-6.876-6.928-10.208-15.418-21.667-23.283-31.407z"/>
   <path d="m339.07 469.07c-2.448 2.917-4.115 5.429-6.185 8.612 10.937 12.554 19.688 32.201 14.844 43.191 2.813 4.479 3.841 7.158 5.404 10.074 11.72-16.041-1.875-43.178-14.063-61.877z"/>
   <path d="m342.35 491.41c1.979 3.229 3.489 6.928 4.531 10.469-7.709 8.282-16.354 17.97-24.063 26.251-2.5-2.812-4.531-4.687-6.719-7.5 8.229-9.479 18.021-19.74 26.251-29.22z"/>
   <path d="m283.76 488.91c1.83 4.388 3.061 7.605 5.313 11.562-8.049 15.981 4.22 34.382 9.844 40.58-2.344 2.5-5.515 5.58-7.859 8.08-10.938-10.677-21.205-34.231-7.298-60.222z"/>
   <path d="m339.07 510.79c-1.875 1.823-3.594 4.115-5.469 5.938 10.99 13.438 18.23 26.876 16.251 40.158 2.785 4.04 4.504 6.725 6.627 12.312 5.416-16.303 2.487-37.105-17.409-58.408z"/>
   <path d="m342.82 529.54c2.188 3.959 2.813 5.573 4.375 9.219-8.177 8.386-17.136 19.271-25.313 27.657-3.021-2.708-4.479-4.167-7.031-7.188 8.542-8.854 19.427-20.833 27.969-29.688z"/>
   <path d="m310.16 528.91c2.083 2.343 4.167 4.375 6.25 6.718-9.219 10.209-19.688 22.136-28.907 32.345-2.188-2.344-3.438-6.25-4.219-9.844 8.542-9.271 18.334-19.948 26.876-29.219z"/>
   <path d="m279.54 530.94c1.823 4.271 3.489 7.135 5.468 10.468-6.926 20.053 5.136 31.017 11.49 38.569-2.461 2.806-3.698 4.058-6.094 6.774-9.337-6.322-23.365-28.258-10.864-55.811z"/>
   <path d="m304.85 548.91l-7.656 8.907 28.594 30.156 7.97-8.125-28.908-30.938z"/>
   <path d="m345.01 567.82c3.021 3.021 4.167 6.823 5.313 9.687-8.802 9.063-17.761 18.282-26.563 27.345-2.239-2.344-4.48-4.531-6.563-6.875 8.646-9.115 19.167-21.042 27.813-30.157z"/>
   <path d="m307.04 568.6l7.811 7.969-28.723 31.738c-2.429-3.487-3.46-5.345-5.027-10.983l25.939-28.724z"/>
   <path d="m276.23 566.18c1.856 5.007 2.899 6.755 4.918 10.78-4.376 14.532 1.342 32.088 14.936 42.401-2.201 2.245-5.034 4.961-7.124 7.207-12.291-11.563-25.433-34.836-12.73-60.388z"/>
   <path d="m305.48 587.19c-2.032 2.292-4.063 4.584-5.938 6.876 10.052 10.469 20.73 21.719 30.783 32.188 2.604-2.864 4.583-5.26 6.563-7.969-10.157-10.052-21.252-21.042-31.408-31.095z"/>
   <path d="m340.79 587.35c-2.292 2.657-4.896 5.157-7.501 7.813 18.647 16.302 21.98 27.605 19.376 39.22 1.875 2.448 4.063 8.021 5.938 10.469 8.803-15.001-0.99-44.22-17.813-57.502z"/>
   <path d="m310.48 605.63c2.448 2.604 4.583 5.052 7.032 7.656-10.574 10.678-22.553 21.694-33.439 31.747-1.908-3.151-2.742-5.352-3.751-10.184 9.897-9.166 20.262-20.052 30.158-29.219z"/>
   <path d="m274.7 607.04c1.927 4.219 3.072 6.251 5.625 10.157-5.522 15.886 5.474 33.38 15.891 44.89-3.333 3.022-6.354 5.325-9.844 6.783-13.386-14.531-26.725-34.485-11.672-61.83z"/>
   <path d="m304.07 626.73c-2.657 2.188-4.845 4.375-7.033 6.875 10.469 9.949 22.566 20.743 33.035 30.692 4.243-2.759 5.086-3.613 7.795-6.537-10.521-9.948-23.276-21.082-33.797-31.03z"/>
   <path d="m345.23 608.07c-8.282 10.053-17.896 21.999-26.178 32.051 2.779 2.819 4.915 4.46 7.519 7.077 7.5-9.323 16.876-20.364 24.376-29.688-1.216-3.703-3.334-6.94-5.717-9.44z"/>
   <path d="m344.54 625.63c-1.927 2.5-4.654 5.404-6.581 7.904 13.23 9.792 17.999 27.832 18.613 36.315 0.03 2.578-8.087-1.619-11.837-4.9-1.771 1.615-4.518 4.379-6.289 5.994 5.678 6.042 23.576 12.553 24.844 10.157 2.608-5.238 2.552-35.209-18.75-55.47z"/>
   <path d="m348.38 645.38c2.154 3.327 3.444 5.449 4.596 9.935-17.553 23.127-35.418 30.405-55.314 20.718 3.45-2.532 6.916-5.751 9.917-8.668 17.657 2.293 22.987 1.193 40.801-21.985z"/>
   <path d="m311.88 647.51c2.604 2.604 4.74 4.427 7.344 7.031-15.678 17.449-26.434 30.932-54.377 29.532-2.74-0.122-1.028-28.012 5.691-38.064 1.347 3.982 3.568 7.538 5.248 10.083-3.021 4.584-0.388 11.16 1.718 13.137 6.489 6.245 24.115-10.573 34.376-21.719z"/>
  </g>
 </g>
</svg>
